<?xml version="1.0" encoding="utf-8"?>
<!-- Generator: Adobe Illustrator 19.0.0, SVG Export Plug-In . SVG Version: 6.00 Build 0)  -->
<svg version="1.1" id="Logo" xmlns="http://www.w3.org/2000/svg" xmlns:xlink="http://www.w3.org/1999/xlink" x="0px" y="0px"
	 viewBox="-176 276.5 926 249.5" style="enable-background:new -176 276.5 926 249.5;" xml:space="preserve">
<style type="text/css">
	.st0{fill:#FFFFFF;}
	.st1{fill:#1F7FF0;}
</style>
<g>
	<path class="st0" d="M6.1,435c0-23.5,0-47,0-70.5c0-8.2,3.1-12.7,11.2-14.6c11.7-2.9,23.6-2.9,35.4,0c8.1,2,11.3,6.6,11.3,14.9
		v140.7c0,9-3.7,13.9-12.6,15.5c-10.8,2-21.8,2-32.6,0c-9-1.6-12.6-6.3-12.6-15.4C6.1,482.1,6.1,458.6,6.1,435"/>
	<path class="st1" d="M57.7,323.1l-27.6,10.8c-5.1,2-10.8-0.5-12.8-5.6L3,291.6l36.7-14.4c5.1-2,10.8,0.5,12.8,5.6l10.8,27.6
		C65.3,315.4,62.8,321.1,57.7,323.1"/>
	<g>
		<path class="st0" d="M738.2,298.7c-0.4-0.5-0.7-1.7-1.1-3.4c-0.3-1.5-1.1-2.2-2.8-2.2h-1.5v5.6h-3.2v-14.1c1.3-0.2,3-0.4,5.3-0.4
			c2.6,0,3.8,0.4,4.7,1.1c0.8,0.6,1.4,1.6,1.4,3c0,1.7-1.3,2.8-2.8,3.3v0.2c1.3,0.4,2,1.5,2.4,3.4c0.4,2.1,0.8,2.9,1,3.4H738.2z
			 M735,277.4c-8,0-14.2,6.2-14.2,14.1c0,7.9,6.3,14.2,14.2,14.2c7.9,0,14.1-6.3,14.1-14.2C749,283.6,742.8,277.4,735,277.4"/>
		<path class="st0" d="M732.8,286.7c0.3-0.1,0.9-0.2,1.8-0.2c2,0,2.9,0.9,2.9,2.1c0,1.5-1.4,2.1-3.2,2.1h-1.5V286.7z"/>
	</g>
	<path class="st0" d="M721.2,361.8c-0.5-6.5-3.4-11.5-9.9-13.7c-7.8-2.7-15.7-3.6-23.9-2.5c-10.1,1.3-18.2,6.4-25.7,13.6
		c-2.2-6.8-7.1-10.6-13.1-11.5c-5.4-0.9-38.5,0-38.5,0s0.1,113.2,0.1,157.6c0,9.5,3.7,14.2,13,15.8c10.6,1.9,21.3,1.9,32,0
		c9.1-1.6,13-6.4,13-15.6c0-25.1,0.4-50.3-0.2-75.4c-0.2-8.9,2.7-15.3,8.3-21.6c7.1-8.1,15-11.9,25.4-6.9c0.2,0.1,0.4,0.1,0.6,0.2
		c9.9,3.1,16.9-1.2,18.5-11.4C722.2,380.9,721.9,371.3,721.2,361.8"/>
	<path class="st0" d="M540.6,410.3c-0.1,1.8-1.4,1.1-2.1,1.1c-7,0.1-14,0-20.9,0c-6.5,0-13.1-0.1-19.6,0.1c-2.9,0.1-3.1-0.8-2.4-3.3
		c4.4-16.2,16.8-21.5,32.2-17.1C534.8,393.2,541.2,403.2,540.6,410.3 M543.5,523.8c12.5-1.3,24.8-4.1,36.3-9.3
		c5.3-2.4,8.7-6.5,9.8-12.3c1.4-7.4-1-13.7-2.2-21.1c0,0,0,0,0-0.1c0-1.5-4.2-15-4.2-15c-31.5,13.7-61,12.5-61,12.5
		c-15.1-0.7-24.4-7.7-27.1-20.9c-1-5-1.5-4.2,3.3-4.2c25.9,0,51.8,0,77.7,0c13,0,20.8-7.7,21.2-20.7c0.3-10.3,0.1-20.5-2.1-30.7
		c-5.2-24.4-18.5-42.1-42.1-51.2c-14.6-5.6-29.8-6.5-45.2-4.9c-33.6,3.3-57.9,23.2-67.7,55.5c-5.9,19.4-6,39.1-3.2,59
		c4.8,33.3,25.9,55.6,59,62.2C496.2,522.6,514,526.9,543.5,523.8"/>
	<path class="st0" d="M181.5,460.1c-6.8,16-20.3,19.1-33.6,7.9c-10.8-9.1-10.8-9.2-10.8-23.2c0-3.2,0-6.3,0-9.5c0-6.3,0-12.7,0-19
		c0-1.3,0-2.5,1-3.6c4.1-4.9,8.4-9.5,13.7-13c11.6-7.7,23.5-4.3,29.2,8.3c4.2,9.2,4.7,19,4.7,28.9
		C185.6,444.8,184.7,452.7,181.5,460.1 M194.2,522.1c21-6.6,34.5-21.1,42.6-41c7.3-17.9,9.1-36.6,8.2-55.6
		c-0.8-15.8-3.4-31.3-10.7-45.5c-13.4-26.1-37.1-37.1-65.7-34.4c-10.6,1-20.4,4.6-29.4,10.3c-0.5,0.3-0.9,0.8-1.8,0.6l-0.3-79.3
		l-44.9,0.3c-7.2,0-12.9,5.9-12.9,13l0,215.7c0,8.6,3.5,13.1,12,14.9c7.3,1.5,14.8,1.4,22.2,0.8c7.9-0.6,14.8-2.6,17.5-11.5
		c8,6.2,16.5,10.8,26.1,13C157.1,523.5,173.8,527.7,194.2,522.1"/>
	<path class="st0" d="M359.7,460.1c-6.8,16-20.3,19.1-33.6,7.9c-10.8-9.1-10.8-9.2-10.8-23.2c0-3.2,0-6.3,0-9.5c0-6.3,0-12.7,0-19
		c0-1.3,0-2.5,1-3.6c4.1-4.9,8.4-9.5,13.7-13c11.6-7.7,23.5-4.3,29.2,8.3c4.2,9.2,4.7,19,4.7,28.9
		C363.8,444.8,362.8,452.7,359.7,460.1 M372.3,522.1c21-6.6,34.5-21.1,42.6-41c7.3-17.9,9.1-36.6,8.2-55.6
		c-0.8-15.8-3.4-31.3-10.7-45.5c-13.4-26.1-37.1-37.1-65.7-34.4c-10.6,1-20.4,4.6-29.4,10.3c-0.5,0.3-0.9,0.8-1.8,0.6l-0.3-79.3
		l-44.9,0.3c-7.2,0-12.9,5.9-12.9,13l0,215.7c0,8.6,3.5,13.1,12,14.9c7.3,1.5,14.8,1.4,22.2,0.8c7.9-0.6,14.8-2.6,17.5-11.5
		c8,6.2,16.5,10.8,26.1,13C335.3,523.5,352,527.7,372.3,522.1"/>
	<path class="st0" d="M-88.1,347.7c-7.6,11.1-13.6,18.9-20.3,29.4c-18,27.9-36.7,56.7-55.3,84.9c-7.2,11-10.3,23-9.4,36.7
		c0.8,11.2,6.4,19,16,21.9c3.3,1,6.6,1.1,9.8,1.1h0.1h56.4c22.5,0,45.1,0,67.6,0c10.1,0,15.8-4.5,17.7-14.3c1.6-8,1.7-16.1,0.2-24.2
		c-2.1-11.5-7.6-15.9-19.5-15.9h-68l9-13.8c6-9.3,12-18.5,18-27.8c16.4-25.3,32.8-50.7,49.2-76c4.5-6.9,6.8-13.7,7.2-20.6
		c0.3-5.3,0.3-10.8,0.1-16.5c-0.4-11.1-6.7-20.9-19.3-21.6h-141.7v45.6c0,6.2,5,11.2,11.2,11.2L-88.1,347.7z"/>
</g>
</svg>
